<?xml version="1.0" encoding="utf-8"?>
<!-- Generator: Adobe Illustrator 21.1.0, SVG Export Plug-In . SVG Version: 6.00 Build 0)  -->
<svg version="1.1" id="Layer_1" xmlns="http://www.w3.org/2000/svg" xmlns:xlink="http://www.w3.org/1999/xlink" x="0px" y="0px"
	 viewBox="0 0 290 91" style="enable-background:new 0 0 290 91;" xml:space="preserve">
<style type="text/css">
	.st0{fill:#00A3D9;}
</style>
<g>
	<path class="st0" d="M24.3,25.6C10.4,25.6,0,35.3,0,49.3s10.6,23.2,24.3,23.2s24.2-9.3,24.2-23.2C48.5,35.2,38.2,25.6,24.3,25.6z
		 M24.3,61.6c-7,0-10.8-5.6-10.8-12.2c0-6.7,3.8-12.4,10.8-12.4c7.2,0,10.9,5.6,10.9,12.4C35.1,55.9,31.3,61.6,24.3,61.6z"/>
	<path class="st0" d="M78.9,56.6c-1.3,2.7-4.1,4.7-7.2,4.7c-5.8,0-6.7-4.4-6.7-9.2V26.5H51.6v30.1c0,9.7,6.6,15.4,16,15.4
		c3.6,0,9.2-1.1,11.5-4.3v3.6h13V26.4H78.9L78.9,56.6z"/>
	<path class="st0" d="M114,56.9v-19l8.7-0.5V27.1l-8.7-0.5V13.9l-12.9,1.4v11.4l-6,0.5v10.4l6,0.5v22.7c0,7.4,4.8,11.9,12.1,11.9
		c3.5,0,6.7-0.9,9.5-3.2v-9c-1.5,0.6-3.2,1.2-4.7,1.2C115.1,61.6,114,59.7,114,56.9z"/>
	<path class="st0" d="M198.9,25.6c-13.9,0-24.3,9.7-24.3,23.6s10.6,23.2,24.3,23.2c13.7,0,24.3-9.3,24.3-23.2
		C223.2,35.2,212.9,25.6,198.9,25.6z M198.9,61.6c-7,0-10.8-5.6-10.8-12.2c0-6.7,3.8-12.4,10.8-12.4c7.2,0,10.9,5.6,10.9,12.4
		C209.8,55.9,205.9,61.6,198.9,61.6z"/>
	<path class="st0" d="M243.2,42.7c-1.7-0.5-3.8-0.8-4.7-2.7c0-0.1,0-0.5,0-0.6c0-2.5,2.6-3.4,4.7-3.4c1.8,0,4.2,0.1,5.7,1.1
		c0.7,0.5,1.4,1.1,1.6,1.9c0.1,0.4-0.2,1,0.2,1c0.5,0,9.8-2.7,10.4-3.1c-2-9.2-9.1-11.6-17.6-11.6c-9,0-18.1,4.9-18.1,15
		c0,11,11,12.8,19.4,15c1.9,0.5,3.3,0.5,4.1,2.6c0.1,0.1,0.1,0.5,0.1,0.5c0,2.6-3.1,3.7-5.3,3.7c-3.3,0-7.9-0.9-8.5-4.9
		c-0.8,0.1-11,3.3-11.7,3.6c2,8.9,11.3,12.2,19.5,12.2c9.5,0,19.5-4,19.5-15C262.7,47.1,251.8,45.1,243.2,42.7z"/>
	<path class="st0" d="M285.3,61.6c-2.9,0-4-1.9-4-4.7v-19l6.5-0.5V27.1l-6.5-0.5V13.9l-12.9,1.3v11.4l-5.3,0.5v10.4l5.3,0.5v22.7
		c0,7.4,4.8,11.9,12.1,11.9c3.5,0,6.7-0.9,9.5-3.2v-9C288.6,61,286.9,61.6,285.3,61.6z"/>
	<path class="st0" d="M187.2,7.2L173.9,0l-14.7,27c-2-0.7-4.2-1.2-6.6-1.2c-5.5,0-10.5,0.5-13.8,5.3v-4.6h-13.1V91h13.1V70.3
		c2.9,1.5,6.3,2.2,9.7,2.2c15.2,0,23.5-8.8,23.5-23.7c0-3.6-0.6-7.1-1.9-10.3L187.2,7.2z M156,59.5c-0.1,0.2-0.2,0.3-0.3,0.4
		c-0.8,1.1-2,1.9-3.4,2c-0.2,0-0.4,0-0.7,0c-1.4,0-2.7-0.6-3.6-1.6l-14.8-15.5l7.2-6.8l10,10.5l0.1-0.1l0,0l11-20.4l0,0l13.4-24.7
		l8.8,4.8L156,59.5z"/>
</g>
</svg>
